<?xml version="1.0" standalone="no"?>
<!DOCTYPE svg PUBLIC "-//W3C//DTD SVG 20010904//EN"
 "http://www.w3.org/TR/2001/REC-SVG-20010904/DTD/svg10.dtd">
<svg version="1.0" xmlns="http://www.w3.org/2000/svg"
 width="178.000000pt" height="178.000000pt" viewBox="0 0 178.000000 178.000000"
 preserveAspectRatio="xMidYMid meet">
<metadata>
Created by potrace 1.11, written by Peter Selinger 2001-2013
</metadata>
<g transform="translate(0.000000,178.000000) scale(0.100000,-0.100000)"
fill="#000000" stroke="none">
<path d="M750 1616 c-5 -5 -10 -7 -10 -4 0 12 -83 -13 -153 -47 -66 -32 -207
-145 -182 -145 6 0 3 -6 -6 -13 -22 -17 -72 -124 -75 -161 -1 -17 -3 -32 -4
-33 -5 -6 -8 -26 -9 -77 -1 -46 -4 -56 -22 -61 -11 -4 -34 -28 -50 -53 -23
-37 -29 -57 -29 -103 0 -31 7 -72 14 -91 16 -38 101 -118 126 -118 11 0 19
-19 28 -66 7 -37 16 -72 20 -78 3 -6 8 -19 9 -29 5 -33 39 -92 52 -89 7 1 10
-2 6 -8 -9 -14 23 -62 35 -55 6 3 7 0 5 -7 -13 -34 217 -203 258 -190 4 1 7
-2 7 -6 0 -12 81 -31 132 -30 34 1 70 12 130 43 46 23 82 47 81 53 -2 6 3 9
10 6 17 -6 118 93 166 165 35 52 73 117 70 123 0 2 4 16 10 31 6 16 8 33 5 39
-4 7 -2 8 4 4 7 -4 12 0 13 11 2 32 4 38 17 61 7 12 18 22 23 22 22 0 88 61
113 105 37 62 37 127 2 200 -15 30 -32 55 -37 55 -23 0 -39 31 -39 75 0 25 -3
44 -7 42 -5 -3 -8 11 -8 31 -1 37 -43 152 -56 152 -3 0 -12 14 -19 30 -26 63
-170 169 -265 195 -17 4 -37 10 -45 13 -8 2 -30 5 -47 6 -18 0 -33 5 -33 9 0
12 -227 6 -240 -7z"/>
</g>
</svg>
